<svg width="512" height="418.89" xmlns="http://www.w3.org/2000/svg">

 <g>
  <title>Layer 1</title>
  <path id="svg_1" d="m29.06,67.65l131.24,0l0,-47.08c0,-11.33 9.24,-20.57 20.57,-20.57l150.26,0c11.33,0 20.57,9.24 20.57,20.57l0,47.08l131.24,0c16,0 29.06,13.06 29.06,29.07l0,293.1c0,8.01 -3.27,15.28 -8.53,20.54s-12.53,8.53 -20.53,8.53l-453.88,0c-8,0 -15.27,-3.27 -20.53,-8.53c-5.26,-5.26 -8.53,-12.53 -8.53,-20.54l0,-293.1c0,-16.01 13.06,-29.07 29.06,-29.07zm297.33,-44.89l-140.78,0c-1.38,0 -2.55,1.16 -2.55,2.55l0,41.96l145.88,0l0,-41.96c0,-1.39 -1.17,-2.55 -2.55,-2.55zm-303.63,362.33c0,6.05 4.98,11.04 11.04,11.04l444.4,0c6.06,0 11.04,-4.99 11.04,-11.04l0,-283.64c0,-6.05 -4.98,-11.04 -11.04,-11.04l-444.4,0c-6.06,0 -11.04,4.99 -11.04,11.04l0,283.64z"/>
  <path id="svg_2" d="m236.92,155.61l38.15,0c7.13,0 12.96,5.83 12.96,12.96l0,42.66l42.67,0c7.12,0 12.95,5.83 12.95,12.96l0,38.15c0,7.13 -5.83,12.96 -12.95,12.96l-42.67,0l0,42.66c0,7.13 -5.83,12.96 -12.96,12.96l-38.15,0c-7.13,0 -12.96,-5.83 -12.96,-12.96l0,-42.66l-42.66,0c-7.13,0 -12.96,-5.83 -12.96,-12.96l0,-38.15c0,-7.13 5.83,-12.96 12.96,-12.96l42.66,0l0,-42.66c0,-7.13 5.83,-12.96 12.96,-12.96z" fill="#000000"/>
 </g>
</svg>